<mxfile host="Electron" modified="2024-01-17T09:08:46.712Z" agent="Mozilla/5.0 (Windows NT 10.0; Win64; x64) AppleWebKit/537.36 (KHTML, like Gecko) draw.io/22.0.3 Chrome/114.0.5735.289 Electron/25.8.4 Safari/537.36" etag="MTLC0v7Ow55MD5k7Ys9C" version="22.0.3" type="device">
  <diagram name="Страница — 1" id="cXdGhwKaKi3-fCCTo1Gb">
    <mxGraphModel dx="1382" dy="683" grid="1" gridSize="10" guides="1" tooltips="1" connect="1" arrows="1" fold="1" page="1" pageScale="1" pageWidth="827" pageHeight="1169" math="0" shadow="0">
      <root>
        <mxCell id="0" />
        <mxCell id="1" parent="0" />
        <mxCell id="T7E25Vha3aE4uSR2RXUI-5" style="edgeStyle=orthogonalEdgeStyle;rounded=0;orthogonalLoop=1;jettySize=auto;html=1;exitX=0.5;exitY=1;exitDx=0;exitDy=0;" edge="1" parent="1" source="T7E25Vha3aE4uSR2RXUI-3" target="T7E25Vha3aE4uSR2RXUI-4">
          <mxGeometry relative="1" as="geometry" />
        </mxCell>
        <mxCell id="T7E25Vha3aE4uSR2RXUI-3" value="Заявка на ремонт" style="rounded=1;whiteSpace=wrap;html=1;" vertex="1" parent="1">
          <mxGeometry x="340" y="70" width="120" height="60" as="geometry" />
        </mxCell>
        <mxCell id="T7E25Vha3aE4uSR2RXUI-9" value="" style="edgeStyle=orthogonalEdgeStyle;rounded=0;orthogonalLoop=1;jettySize=auto;html=1;" edge="1" parent="1" source="T7E25Vha3aE4uSR2RXUI-4" target="T7E25Vha3aE4uSR2RXUI-8">
          <mxGeometry relative="1" as="geometry" />
        </mxCell>
        <mxCell id="T7E25Vha3aE4uSR2RXUI-4" value="Регистрация заявки" style="rounded=0;whiteSpace=wrap;html=1;" vertex="1" parent="1">
          <mxGeometry x="340" y="160" width="120" height="60" as="geometry" />
        </mxCell>
        <mxCell id="T7E25Vha3aE4uSR2RXUI-11" value="" style="edgeStyle=orthogonalEdgeStyle;rounded=0;orthogonalLoop=1;jettySize=auto;html=1;" edge="1" parent="1" source="T7E25Vha3aE4uSR2RXUI-8" target="T7E25Vha3aE4uSR2RXUI-10">
          <mxGeometry relative="1" as="geometry" />
        </mxCell>
        <mxCell id="T7E25Vha3aE4uSR2RXUI-8" value="Обработка заявки" style="rounded=0;whiteSpace=wrap;html=1;" vertex="1" parent="1">
          <mxGeometry x="340" y="250" width="120" height="60" as="geometry" />
        </mxCell>
        <mxCell id="T7E25Vha3aE4uSR2RXUI-13" value="" style="edgeStyle=orthogonalEdgeStyle;rounded=0;orthogonalLoop=1;jettySize=auto;html=1;" edge="1" parent="1" source="T7E25Vha3aE4uSR2RXUI-10" target="T7E25Vha3aE4uSR2RXUI-12">
          <mxGeometry relative="1" as="geometry" />
        </mxCell>
        <mxCell id="T7E25Vha3aE4uSR2RXUI-10" value="Исполнение заявки" style="rounded=0;whiteSpace=wrap;html=1;" vertex="1" parent="1">
          <mxGeometry x="340" y="340" width="120" height="60" as="geometry" />
        </mxCell>
        <mxCell id="T7E25Vha3aE4uSR2RXUI-15" value="" style="edgeStyle=orthogonalEdgeStyle;rounded=0;orthogonalLoop=1;jettySize=auto;html=1;" edge="1" parent="1" source="T7E25Vha3aE4uSR2RXUI-12" target="T7E25Vha3aE4uSR2RXUI-14">
          <mxGeometry relative="1" as="geometry" />
        </mxCell>
        <mxCell id="T7E25Vha3aE4uSR2RXUI-12" value="Отчётность и информирование" style="rounded=0;whiteSpace=wrap;html=1;" vertex="1" parent="1">
          <mxGeometry x="340" y="430" width="120" height="60" as="geometry" />
        </mxCell>
        <mxCell id="T7E25Vha3aE4uSR2RXUI-17" style="edgeStyle=orthogonalEdgeStyle;rounded=0;orthogonalLoop=1;jettySize=auto;html=1;exitX=0.5;exitY=1;exitDx=0;exitDy=0;" edge="1" parent="1" source="T7E25Vha3aE4uSR2RXUI-14" target="T7E25Vha3aE4uSR2RXUI-16">
          <mxGeometry relative="1" as="geometry" />
        </mxCell>
        <mxCell id="T7E25Vha3aE4uSR2RXUI-14" value="Мониторинг и анализ" style="rounded=0;whiteSpace=wrap;html=1;" vertex="1" parent="1">
          <mxGeometry x="340" y="524.5" width="120" height="60" as="geometry" />
        </mxCell>
        <mxCell id="T7E25Vha3aE4uSR2RXUI-16" value="Улучшение процесса" style="rounded=1;whiteSpace=wrap;html=1;" vertex="1" parent="1">
          <mxGeometry x="340" y="620" width="120" height="60" as="geometry" />
        </mxCell>
      </root>
    </mxGraphModel>
  </diagram>
</mxfile>
